# xmcd CD database file
#
# Track frame offsets:
#	150
#	38964
#	66048
#	86361
#
# Disc length: 1472 seconds
#
# Revision: 0
# Processed by: cddbd v1.5.1PL2 Copyright (c) Steve Scherf et al.
# Submitted via: CDex 1.51
#
DISCID=2905be04
DTITLE=Tom Waits - New Live At The House Of Blues - 8/13/06
DYEAR=1900
DGENRE=Blues
TTITLE0=Don't Go Into That Barn
TTITLE1=Ramblin' Man
TTITLE2=Whistlin' Past The Graveyard
TTITLE3=Buzz Fledderjohn
EXTD=
EXTT0=
EXTT1=
EXTT2=
EXTT3=
PLAYORDER=
